# xmcd
#
# Track frame offsets: 
#        150
#        14435
#        33915
#        52507
#        74475
#        96812
#        117712
#        142432
#        153397
#        173927
#        185685
#        213017
#        237025
#        251012
#
# Disc length: 3603 seconds
#
# Revision: 5
# Processed by: cddbd v1.5.2PL0 Copyright (c) Steve Scherf et al.
# Submitted via: ExactAudioCopyFreeDBPlugin 1.0
#
DISCID=c50e110e
DTITLE=Наталья Маркова и Двуречье - Светозар
DYEAR=1995
DGENRE=Folk-Rock
TTITLE0=Вслед за тобой
TTITLE1=Ветер в облаках
TTITLE2=Стежень
TTITLE3=Где искали меня
TTITLE4=Что обещано
TTITLE5=С ветром проститься
TTITLE6=Ты где
TTITLE7=Изгиб сечали
TTITLE8=О чем ты плачешь
TTITLE9=Скошены травы
TTITLE10=Ответ Улы
TTITLE11=Светозар
TTITLE12=Ты обречен
TTITLE13=Иверни счастья
EXTD=ID3G: 2
EXTT0=
EXTT1=
EXTT2=
EXTT3=
EXTT4=
EXTT5=
EXTT6=
EXTT7=
EXTT8=
EXTT9=
EXTT10=
EXTT11=
EXTT12=
EXTT13=
PLAYORDER=
